<?xml version="1.0" encoding="utf-8"?>
<!-- Generator: Adobe Illustrator 27.9.0, SVG Export Plug-In . SVG Version: 6.00 Build 0)  -->
<svg version="1.1" id="Layer_1" xmlns="http://www.w3.org/2000/svg" xmlns:xlink="http://www.w3.org/1999/xlink" x="0px" y="0px"
	 viewBox="0 0 3710 3710" style="enable-background:new 0 0 3710 3710;" xml:space="preserve">
<style type="text/css">
	.st0{fill:url(#SVGID_1_);}
	.st1{fill:#BDD0FB;}
	.st2{fill:#FFFFFF;}
	.st3{fill:#91B3FA;}
	.st4{fill:url(#SVGID_00000107582375909522849700000013875761827685395591_);}
	.st5{fill:url(#SVGID_00000088848203902552649410000006573633384961487539_);}
	.st6{opacity:0.85;}
	.st7{opacity:0.8;}
	.st8{fill:#7D97F4;}
	.st9{fill:url(#SVGID_00000100365201542276500760000002987686883998177699_);}
	.st10{fill:url(#SVGID_00000143615078744392286870000017677679528324099983_);}
	.st11{fill:url(#SVGID_00000138540775516423167710000017971049911559169206_);}
	.st12{fill:url(#SVGID_00000134209496365903425580000010930653269573843599_);}
	.st13{fill:url(#SVGID_00000057869915330378803650000011753020844694305681_);}
	.st14{fill:url(#SVGID_00000124147462807376167780000000766682628994420386_);}
	.st15{fill:url(#SVGID_00000020395347605216933210000004097106703202945462_);}
	.st16{fill:url(#SVGID_00000132801364816773423250000017892150617684755355_);}
	.st17{fill:url(#SVGID_00000159458713849175525800000003769529890650234525_);}
	.st18{fill:url(#SVGID_00000053519281739037011020000002616131595332592539_);}
	.st19{fill:url(#SVGID_00000047781974286019510450000014783243178754435518_);}
	.st20{fill:url(#SVGID_00000134944389007115522410000009684015105649702042_);}
	.st21{fill:url(#SVGID_00000000207188858194865610000017721693141527864502_);}
	.st22{fill:url(#SVGID_00000050652642818350402470000010059258451561076392_);}
	.st23{fill:url(#SVGID_00000152959574855002131580000003080552843401489339_);}
	.st24{fill:url(#SVGID_00000098940019140743876250000018446016944208984216_);}
	.st25{fill:url(#SVGID_00000000191142648324476360000012195259322078554551_);}
	.st26{fill:url(#SVGID_00000137093053167156102070000016288106087442057102_);}
	.st27{fill:url(#SVGID_00000031165128248042018110000012286044537959836813_);}
	.st28{fill:url(#SVGID_00000019665168962651119480000010411649345565048746_);}
	.st29{fill:url(#SVGID_00000025434290002510060900000012620687191985327525_);}
	.st30{fill:url(#SVGID_00000045594073547335749700000002415208807266376838_);}
	.st31{fill:url(#SVGID_00000095311342867317757670000006906630278673636525_);}
	.st32{fill:url(#SVGID_00000101822035696732181280000008812540650305298857_);}
	.st33{fill:url(#SVGID_00000048462638365787729480000001504851451206032801_);}
	.st34{fill:url(#SVGID_00000165235285203447246390000009660611122650643599_);}
	.st35{fill:url(#SVGID_00000140716790937370449840000016291407525841763970_);}
	.st36{fill:url(#SVGID_00000089572047475739143900000005825409245848373165_);}
	.st37{fill:url(#SVGID_00000032620526753886968200000012951153611478670250_);}
	.st38{fill:url(#SVGID_00000059993011703439011960000012469170390060643208_);}
	.st39{fill:url(#SVGID_00000163762461497383917160000012639727188926166952_);}
	.st40{opacity:0.3;}
	.st41{fill:url(#SVGID_00000044899345198759817640000006950950421185780400_);}
	.st42{fill:url(#SVGID_00000168104805337339197250000009948545596640506532_);}
	.st43{fill:url(#SVGID_00000080196578722491456810000012119911930917316259_);}
	.st44{fill:url(#SVGID_00000001648305465552999740000014571837262651526024_);}
	.st45{fill:url(#SVGID_00000085954657165827369750000002157874849727711375_);}
	.st46{fill:url(#SVGID_00000173151338637192550340000016766818382013347252_);}
	.st47{fill:url(#SVGID_00000138537715511120333510000006581997737947482803_);}
	.st48{fill:url(#SVGID_00000131324984180293262950000005802643543267631014_);}
	.st49{fill:url(#SVGID_00000006666867892556333450000007256547520071433384_);}
	.st50{fill:url(#SVGID_00000112592613999499589280000001903056596412336007_);}
	.st51{fill:url(#SVGID_00000049940523125585381600000001491777681778093986_);}
	.st52{fill:url(#SVGID_00000173849416887470977490000000305968221841519771_);}
	.st53{fill:url(#SVGID_00000013871590574301663410000014520910625730297006_);}
	.st54{fill:url(#SVGID_00000173875878262285303210000002134308589341207698_);}
	.st55{fill:url(#SVGID_00000102528925148226435870000016447611096749860772_);}
	.st56{fill:url(#SVGID_00000001628013929669306890000007580023547819952055_);}
	.st57{fill:url(#SVGID_00000114751908070362520710000004531249817982566079_);}
	.st58{fill:url(#SVGID_00000160173305258405469380000012695373943313539509_);}
	.st59{fill:url(#SVGID_00000047045882891745030460000011908695203630830217_);}
</style>
<g id="Illustration">
	<g>
		
			<linearGradient id="SVGID_1_" gradientUnits="userSpaceOnUse" x1="3397.9338" y1="145.6828" x2="1393.0165" y2="2309.7212" gradientTransform="matrix(1 0 0 -1 0 3710)">
			<stop  offset="0" style="stop-color:#DAE3FE"/>
			<stop  offset="1" style="stop-color:#E9EFFD"/>
		</linearGradient>
		<path class="st0" d="M3118.5,2331.1C2843,2975,2115.8,3251.6,1546.1,3204.5c-155.6-12.9-468.6-38.8-713-269.9
			C363.7,2490.7,436,1562.9,885.3,1016.7c57.9-70.3,458.4-541.6,1082.5-535.3c457,4.6,777.7,262.7,816.7,294.9
			c49.3,40.6,157.9,137.2,255.9,290.3C3270.5,1426.4,3290.7,1928.7,3118.5,2331.1z"/>
		<g>
			<path class="st1" d="M484.2,469c-2.6-11.1,13-18.5,22.6-10.7c97.3,78.9,331.1,315.2,272.9,728.2
				c-73.1,518.1,51.9,707.2,207.5,822.5c0,0-213.7-54.2-348.1-246.1C309,1291.8,530.7,666.8,484.2,469z"/>
			<path class="st2" d="M558.3,630.8c12.2,57.7,23,115.5,31.4,173.6c8.7,58.1,15.4,116.3,20,174.7c4.3,58.4,7.4,116.8,7.5,175.3
				c0.5,58.5-2,116.9-4.6,175.5c-2.3,58.6-5,117.7-0.7,177.1c4.2,59.3,16.7,119.2,41.5,175.3c6.2,14,12.7,27.9,20.1,41.4
				c7.1,13.6,14.9,26.9,23,40.1c16.3,26.3,34.7,51.8,55.2,75.9c41.1,48.2,90.7,91,145.3,127.2c5.8,3.8,14,2.9,18.4-2.1
				c4.3-4.9,3.4-11.8-2.1-15.7l0,0c-13-9.1-25.9-18.4-38.2-28.1c-6.3-4.8-12.3-9.8-18.4-14.7c-5.9-5.1-12-10-17.7-15.2
				c-23.2-20.6-44.7-42.7-64.2-66c-39.2-46.4-70.6-98-94.4-151.6c-11.5-26.9-20.8-54.5-27.5-82.6c-6.7-28.1-10.9-56.7-13.3-85.6
				c-4.7-57.7-2.6-116.2-0.8-174.8c1.7-58.6,3-117.6,1.4-176.5c-0.7-29.4-2-58.9-3.9-88.3c-0.9-14.7-2-29.4-3.2-44.1
				c-1.3-14.7-2.7-29.3-4.3-44c-6.3-58.6-14.7-117-25.2-175.1c-10.8-58.1-23.4-115.9-38.6-173.1c-0.4-1.6-2.3-2.7-4.2-2.3
				C559.1,627.6,557.9,629.2,558.3,630.8z"/>
		</g>
		<g>
			<g>
				<path class="st3" d="M736.3,1709.1c-11.9,12.7-32.9,9-40.1-6.8C656.6,1614.8,567,1357.5,715,1061c125-250.4,169-398,184.3-466.4
					c3.2-14.5,23.1-16.4,29-2.8C994.4,741.5,1168.7,1250.4,736.3,1709.1z"/>
				<path class="st2" d="M714.6,1699.9c-0.4,0.1-0.9,0.1-1.3,0.1c-3.8-0.1-6.7-3.1-6.7-6.9c0.1-4.3,8.3-429.2,166.4-785.2
					c1.5-3.4,5.5-5,9-3.5c3.4,1.5,5,5.5,3.5,9c-156.9,353.4-165.2,775.7-165.2,779.9C720.2,1696.6,717.8,1699.3,714.6,1699.9z"/>
			</g>
		</g>
		<g>
			
				<linearGradient id="SVGID_00000096052073976513506420000011783729849469281171_" gradientUnits="userSpaceOnUse" x1="2863.1257" y1="2605.4971" x2="831.2637" y2="1058.4231" gradientTransform="matrix(1 0 0 -1 0 3710)">
				<stop  offset="0" style="stop-color:#4F52FF"/>
				<stop  offset="1" style="stop-color:#4042E2"/>
			</linearGradient>
			<path style="fill:url(#SVGID_00000096052073976513506420000011783729849469281171_);" d="M674.6,1102l2296.6-38.8
				c92.5-1.6,166.7,77.7,161.2,172.2l-79.1,1359.4c-4.3,74.4-64.2,132.7-137,133.4l-2207.6,21.8c-54.5,0.5-99.6-43.4-101.7-99.2
				L554.3,1232C551.7,1161.8,606,1103.1,674.6,1102z"/>
			<path class="st3" d="M709.8,1136.6l2236.7-36.9c90.1-1.5,162.3,74,157,163.9l-77,1293.4c-4.2,70.8-62.5,126.2-133.4,126.9
				l-2150,20.8c-53.1,0.5-97-41.3-99-94.4l-51.4-1349.9C590.1,1193.5,643,1137.7,709.8,1136.6z"/>
			<path class="st1" d="M751.7,1181.2l2129.9-35.2c85.7-1.4,154.6,70.4,149.5,156l-73.3,1231.6c-4,67.4-59.5,120.2-127,120.9
				l-2047.3,19.8c-50.6,0.5-92.3-39.3-94.3-89.9l-49-1285.4C637.7,1235.4,688,1182.2,751.7,1181.2z"/>
			
				<linearGradient id="SVGID_00000085963725637978749030000006778854323022729095_" gradientUnits="userSpaceOnUse" x1="1657.4358" y1="1741.3087" x2="2247.9426" y2="3846.4043" gradientTransform="matrix(1 0 0 -1 0 3710)">
				<stop  offset="0" style="stop-color:#4F52FF"/>
				<stop  offset="1" style="stop-color:#4042E2"/>
			</linearGradient>
			<path style="fill:url(#SVGID_00000085963725637978749030000006778854323022729095_);" d="M2951.7,1098.6l-2246.1,37.1
				c-67.1,1.1-120.2,57.2-117.7,124.3l3.6,95.2h2512.3l5.5-91.9C3114.7,1172.9,3042.1,1097.1,2951.7,1098.6z"/>
			<g class="st6">
				<path class="st2" d="M776.3,1181.7c0,11.2-9,20.2-20.2,20.2s-20.2-9-20.2-20.2c0-11.2,9-20.2,20.2-20.2
					C767.2,1161.5,776.3,1170.5,776.3,1181.7z"/>
				<path class="st2" d="M776.3,1240.9c0,11.2-9,20.2-20.2,20.2s-20.2-9-20.2-20.2c0-11.2,9-20.2,20.2-20.2
					C767.2,1220.7,776.3,1229.7,776.3,1240.9z"/>
				<path class="st2" d="M776.3,1300.1c0,11.2-9,20.2-20.2,20.2s-20.2-9-20.2-20.2s9-20.2,20.2-20.2
					C767.2,1279.9,776.3,1288.9,776.3,1300.1z"/>
			</g>
		</g>
		<g class="st7">
			<polygon class="st2" points="1545.8,2540.4 1365.3,2549.8 1365.3,2273.5 1545.8,2267 			"/>
			<polygon class="st2" points="1838.1,2525.1 1663.9,2534.2 1663.9,2173.4 1838.1,2168.1 			"/>
			<polygon class="st2" points="2120.4,2510.4 1952.2,2519.1 1952.2,2047.9 2120.4,2044 			"/>
			<polygon class="st2" points="2393.1,2496.1 2230.6,2504.6 2230.6,1888.9 2393.1,1886.6 			"/>
			<path class="st2" d="M2326.8,1517.3c-13.2-7.6-30.6-3.9-38.6,8.4c-8.7,13.2-17.6,26.1-26.9,38.7
				c-173.1,235.3-457.5,374.6-857.6,412.3c-13,1.2-23.3,2.2-31,3.2c-5,0.7-12.1,1.6-19,4.4c-7,2.8-13.7,7.5-17.6,15.7
				c-6.8,14.3,0.8,30.5,16.9,36.1c4,1.4,8.2,2,12.2,1.9c4.6-0.1,9.2-1.1,13.3-2.9c5.8-0.9,18.4-2.1,30.6-3.3
				c73.2-7.2,242.2-23.6,423.5-91c203.1-75.6,361.7-191.8,474.7-345.7c10-13.6,19.7-27.5,28.9-41.8
				C2344.2,1541.1,2340,1524.9,2326.8,1517.3z"/>
			<path class="st2" d="M2339.3,1677.9c-14.6,0-27-10.6-28-24.5l-8-114.8l-117.9,72.7c-13.1,8.1-30.9,4.8-39.7-7.4
				c-8.8-12.2-5.3-28.7,7.9-36.7l199.3-122.1l14.2,205.1c1,14.4-10.7,26.8-26.1,27.8C2340.5,1677.9,2339.9,1677.9,2339.3,1677.9z"/>
		</g>
		<g>
			<g>
				<g>
					<rect x="2533.5" y="2874.8" class="st8" width="26.4" height="285.2"/>
					<path class="st8" d="M2662.2,3165.5h-231l0,0c0-9.5,7.7-17.2,17.2-17.2H2645C2654.5,3148.3,2662.2,3156,2662.2,3165.5
						L2662.2,3165.5z"/>
					<path class="st8" d="M2696.5,2864.9c0,15.6-12.8,28.4-28.4,28.4h-233.7c-15.6,0-28.4-12.8-28.4-28.4v-25.6
						c0-15.6,12.8-28.4,28.4-28.4h233.7c15.6,0,28.4,12.8,28.4,28.4V2864.9z"/>
				</g>
				<g>
					
						<linearGradient id="SVGID_00000115488652349029116520000015272051953515254932_" gradientUnits="userSpaceOnUse" x1="2258.9038" y1="791.4375" x2="2446.4238" y2="791.4375" gradientTransform="matrix(1 0 0 -1 0 3710)">
						<stop  offset="0" style="stop-color:#FEBBBA"/>
						<stop  offset="1" style="stop-color:#FF928E"/>
					</linearGradient>
					<path style="fill:url(#SVGID_00000115488652349029116520000015272051953515254932_);" d="M2352,2684.6c0,0-39.2,6.1-83.2,35.5
						c-6.9,4.6-10.7,12.7-9.7,21c5.3,41.8,27,177.1,98.5,309.2c3.8,7,4.9,15.1,3.2,22.8l-12.4,57.8l-23,21.6h59.4l39.5-107
						l-16.9-5.3c-13.1-4.1-22.1-16.2-22.3-29.9l-2-114.7c1.7-51.1-31.3-86.4-31.3-86.4l94.8-4.6L2352,2684.6z"/>
					
						<linearGradient id="SVGID_00000032638404614975143980000001667621528120427692_" gradientUnits="userSpaceOnUse" x1="2373.6406" y1="669.2493" x2="2346.0593" y2="246.3367" gradientTransform="matrix(1 0 0 -1 0 3710)">
						<stop  offset="0" style="stop-color:#4F52FF"/>
						<stop  offset="1" style="stop-color:#4042E2"/>
					</linearGradient>
					<path style="fill:url(#SVGID_00000032638404614975143980000001667621528120427692_);" d="M2302.1,3163
						c-5.4,7.1,58.2,16.4,90.3,0.9c0,0,44.5-77.5,44.5-117.4c0,0-3.5-8.1-29.7-6.3c0,0-15,91.8-30.7,102c-15.8,10.3-44.2,1-44.2,1
						S2310.1,3152.5,2302.1,3163z"/>
					
						<linearGradient id="SVGID_00000135678524553073810260000003150573533366021028_" gradientUnits="userSpaceOnUse" x1="2038.724" y1="778.629" x2="2434.4299" y2="778.629" gradientTransform="matrix(1 0 0 -1 0 3710)">
						<stop  offset="0" style="stop-color:#FEBBBA"/>
						<stop  offset="1" style="stop-color:#FF928E"/>
					</linearGradient>
					<path style="fill:url(#SVGID_00000135678524553073810260000003150573533366021028_);" d="M2434.4,2810.8
						c-0.5-0.9-102.1-12.2-102.1-12.2s3.3,30.9-7.1,73.4s-159.5,226.7-159.5,226.7l15.6,49.6c-48.3,16.8-95.9,19.5-142.7,8.6
						l96.9-58.2c0,0,90.7-309.1,146.2-364.2l101.8-35.2L2434.4,2810.8z"/>
					
						<linearGradient id="SVGID_00000034782611189756513360000001086142980050711710_" gradientUnits="userSpaceOnUse" x1="2282.8882" y1="985.0544" x2="2726.1919" y2="985.0544" gradientTransform="matrix(1 0 0 -1 0 3710)">
						<stop  offset="0" style="stop-color:#09005D"/>
						<stop  offset="1" style="stop-color:#1A0F91"/>
					</linearGradient>
					<path style="fill:url(#SVGID_00000034782611189756513360000001086142980050711710_);" d="M2662.2,2631c0,0,58.5,87,63.3,126.7
						c4.8,39.7-16,55.8-77.4,58.5c-61.4,2.7-225.3,2.6-225.3,2.6l-139.9-119.6c0,0,102-36.4,128.5-46.7
						C2437.9,2642.4,2662.2,2631,2662.2,2631z"/>
					
						<linearGradient id="SVGID_00000065070699495549733070000014392896262518543762_" gradientUnits="userSpaceOnUse" x1="2107.4839" y1="686.6072" x2="2079.9026" y2="263.6941" gradientTransform="matrix(1 0 0 -1 0 3710)">
						<stop  offset="0" style="stop-color:#4F52FF"/>
						<stop  offset="1" style="stop-color:#4042E2"/>
					</linearGradient>
					<path style="fill:url(#SVGID_00000065070699495549733070000014392896262518543762_);" d="M2175.5,3131.6
						c0,0,16.8,16.3,5.5,34.4c0,0-133.4,23.6-169.6,12.9c0,0,7.5-17.2,48.3-36.7l-3,2.3c-3.8,2.9-1.6,9,3.2,8.7
						C2086.8,3151.8,2142.4,3146.9,2175.5,3131.6z"/>
				</g>
				<g>
					
						<linearGradient id="SVGID_00000150813264265999321290000011456577592463504037_" gradientUnits="userSpaceOnUse" x1="3881.3628" y1="1656.1461" x2="3401.2168" y2="1080.8625" gradientTransform="matrix(-1 0 0 -1 6188.8965 3710)">
						<stop  offset="0" style="stop-color:#09005D"/>
						<stop  offset="1" style="stop-color:#1A0F91"/>
					</linearGradient>
					<path style="fill:url(#SVGID_00000150813264265999321290000011456577592463504037_);" d="M2396.7,2218.6
						c0,8.1,73,308.4,73,308.4l208.1,61.2c40.1,11.8,83.2-4.5,105.5-39.9h0c55.4-88,28.9-204.2-59.1-259.5l-29.5-18.5
						c-62.8-39.5-117.1-91.2-159.5-152.1l-11.1-15.9L2396.7,2218.6z"/>
					<path class="st8" d="M2751.2,2508.8c-0.3,0-0.6-0.1-0.7-0.4c-0.2-0.4-0.1-0.9,0.3-1.2c24.6-14.8,27-48.4,26.8-62.1
						c-0.3-27.3-7.5-54.3-21-78c-24.2-42.7-66.1-71.7-106.6-99.8l-8.4-5.8c-41.4-28.8-87.2-63.8-105.8-114.5
						c-0.2-0.4,0.1-0.9,0.5-1.1c0.4-0.2,0.9,0.1,1.1,0.5c18.5,50.2,64,85,105.2,113.7l8.4,5.8c40.7,28.2,82.7,57.3,107.1,100.3
						c13.6,24,20.9,51.2,21.2,78.8c0.1,14-2.3,48.4-27.7,63.6C2751.5,2508.7,2751.3,2508.8,2751.2,2508.8z"/>
					<path class="st8" d="M2734.3,2464.1c-0.1,0-0.1,0-0.2,0c-0.5-0.1-0.8-0.5-0.7-1c5.5-27.8,4.7-52.7-2.4-73.9
						c-12.8-38.3-46.9-66.3-75.1-86.3c-5.7-4-11.5-8.1-17.2-12c-26.2-18-53.3-36.7-72.9-62.1c-0.3-0.4-0.2-0.9,0.1-1.2
						c0.4-0.3,0.9-0.2,1.2,0.2c19.5,25.2,46.5,43.8,72.6,61.7c5.7,3.9,11.5,7.9,17.2,12c28.4,20.2,62.8,48.3,75.7,87.1
						c7.2,21.5,8,46.6,2.5,74.8C2735.1,2463.8,2734.7,2464.1,2734.3,2464.1z"/>
					
						<linearGradient id="SVGID_00000103943123475575051460000016257179090868977055_" gradientUnits="userSpaceOnUse" x1="2428.2053" y1="1194.5702" x2="3385.8809" y2="1676.8048" gradientTransform="matrix(1 0 0 -1 0 3710)">
						<stop  offset="0" style="stop-color:#FE7062"/>
						<stop  offset="1" style="stop-color:#FF928E"/>
					</linearGradient>
					<path style="fill:url(#SVGID_00000103943123475575051460000016257179090868977055_);" d="M2504,2619.5
						c0,0-68.1-64.9-101.7-107.9c-18.1-23.2-23.8-53.8-15.4-82.1c15.3-51.6,42.5-105,45-113.4c3.8-12.7,80.2-12.2,80.2-12.2
						s150.4,97.6,209.4,262.9l-66.3,20.7c0,0-39.3-65.9-78-107.7c0,0,67.1,88.7,69.5,125L2504,2619.5z"/>
					
						<linearGradient id="SVGID_00000008121427555741094860000016010179225463237814_" gradientUnits="userSpaceOnUse" x1="2482.9448" y1="1295.7781" x2="2456.2334" y2="1467.1746" gradientTransform="matrix(1 0 0 -1 0 3710)">
						<stop  offset="0" style="stop-color:#FEBBBA"/>
						<stop  offset="1" style="stop-color:#FF928E"/>
					</linearGradient>
					<path style="fill:url(#SVGID_00000008121427555741094860000016010179225463237814_);" d="M2411.3,2227.5
						c0.8,2.7,32,86.3,33.6,87.6c1.6,1.4,43.7,3.6,63.6-9.9l-49.2-96.3L2411.3,2227.5z"/>
					
						<linearGradient id="SVGID_00000007393011300158263680000002794361461175844999_" gradientUnits="userSpaceOnUse" x1="2596.8125" y1="1101.823" x2="2968.5315" y2="1101.823" gradientTransform="matrix(1 0 0 -1 0 3710)">
						<stop  offset="0" style="stop-color:#FEBBBA"/>
						<stop  offset="1" style="stop-color:#FF928E"/>
					</linearGradient>
					<path style="fill:url(#SVGID_00000007393011300158263680000002794361461175844999_);" d="M2365.1,2624.3l50.1-48.3l69.3,29.3
						c0,0,68.9,10.7,108.4,0c39.5-10.7,39.5-10.7,39.5-10.7l89.2-27.8l14,39.6c3.6,10,0,21.2-8.7,27.4c-7.7,5.5-16.8,11.5-22.5,14
						c-11.7,5.1-289.5-3.6-289.5-3.6L2365.1,2624.3z"/>
					
						<linearGradient id="SVGID_00000014628130003757562190000009142346447109523121_" gradientUnits="userSpaceOnUse" x1="909.2293" y1="2164.7021" x2="1089.2412" y2="2042.4299" gradientTransform="matrix(0.9984 -5.670000e-02 -5.670000e-02 -0.9984 1577.5402 4349.3521)">
						<stop  offset="0" style="stop-color:#FEBBBA"/>
						<stop  offset="1" style="stop-color:#FF928E"/>
					</linearGradient>
					<path style="fill:url(#SVGID_00000014628130003757562190000009142346447109523121_);" d="M2419.4,2089.2
						c0,0-36.1,17.7-58.2,72.6c-22.1,54.9-1.9,78.5,21.9,80.6c23.8,2.1,59.1-0.5,94.4-37.1
						C2512.8,2168.6,2466.5,2067.9,2419.4,2089.2z"/>
					
						<linearGradient id="SVGID_00000157995694395255206590000011706335769929118856_" gradientUnits="userSpaceOnUse" x1="4286.6099" y1="2309.2158" x2="3798.417" y2="1724.2905" gradientTransform="matrix(-0.9984 5.670000e-02 -5.670000e-02 -0.9984 6760.2334 4055.1011)">
						<stop  offset="0" style="stop-color:#09005D"/>
						<stop  offset="1" style="stop-color:#1A0F91"/>
					</linearGradient>
					<path style="fill:url(#SVGID_00000157995694395255206590000011706335769929118856_);" d="M2450.8,2178.1
						c0,0,23.5-79.8-45.9-76.8l-15.7,12.3c0,0-27.9-41.9,12.7-65c40.6-23.1,104-8.2,125,47.1c21,55.3,12.6,92.2-15.4,120.8
						c-28,28.6-42-1.2-42-1.2s14.7-26.1,7.4-39.2c-7.3-13.1-21.5,4-21.5,4L2450.8,2178.1z"/>
					
						<linearGradient id="SVGID_00000014623124530652495280000006988105434467737740_" gradientUnits="userSpaceOnUse" x1="301.4591" y1="1150.0251" x2="500.058" y2="1015.128" gradientTransform="matrix(0.914 0.4056 0.4056 -0.914 1657.4634 3012.2334)">
						<stop  offset="0" style="stop-color:#FEBBBA"/>
						<stop  offset="1" style="stop-color:#FF928E"/>
					</linearGradient>
					<path style="fill:url(#SVGID_00000014623124530652495280000006988105434467737740_);" d="M2451,2192.1c0,0,32.3-34.4,44.1-9.7
						c11.8,24.7-32.1,30.7-48.7,31.7L2451,2192.1z"/>
				</g>
				<g>
					
						<linearGradient id="SVGID_00000094614956554464971940000003338357677588391070_" gradientUnits="userSpaceOnUse" x1="2596.199" y1="1037.3524" x2="2362.1995" y2="973.2193" gradientTransform="matrix(0.9988 -4.940000e-02 -4.940000e-02 -0.9988 62.034 3734.2581)">
						<stop  offset="0" style="stop-color:#09005D"/>
						<stop  offset="1" style="stop-color:#1A0F91"/>
					</linearGradient>
					<path style="fill:url(#SVGID_00000094614956554464971940000003338357677588391070_);" d="M2554.6,2647.1c-0.2,0-0.4,0-0.7,0
						l-290.4-0.3c-7.2,0-13-5.8-13-13c0-7.2,5.9-13.1,13-13l290.4,0.3c7.2,0,13,5.8,13,13
						C2566.9,2641.1,2561.5,2646.7,2554.6,2647.1z"/>
					
						<linearGradient id="SVGID_00000061460716888949020400000015729380198309226137_" gradientUnits="userSpaceOnUse" x1="2287.1653" y1="1291.2675" x2="2121.1318" y2="1115.7804" gradientTransform="matrix(1 0 0 -1 0 3710)">
						<stop  offset="0" style="stop-color:#09005D"/>
						<stop  offset="1" style="stop-color:#1A0F91"/>
					</linearGradient>
					<path style="fill:url(#SVGID_00000061460716888949020400000015729380198309226137_);" d="M2002.4,2383.4h241.9
						c17.8,0,34.1,10.3,41.7,26.4l111.8,237.1h-300.6c-11.5,0-21.8-7-26.1-17.7l-86.7-219.4
						C1979.4,2397.1,1988.8,2383.4,2002.4,2383.4z"/>
					
						<linearGradient id="SVGID_00000160878454716432265830000016191519096502403724_" gradientUnits="userSpaceOnUse" x1="2186.7913" y1="1247.572" x2="2111.4561" y2="1134.1257" gradientTransform="matrix(1 0 0 -1 0 3710)">
						<stop  offset="0" style="stop-color:#4F52FF"/>
						<stop  offset="1" style="stop-color:#4042E2"/>
					</linearGradient>
					<path style="fill:url(#SVGID_00000160878454716432265830000016191519096502403724_);" d="M2172.8,2504.9
						c5.2,16.3,1.4,32.1-8.6,35.3c-10,3.2-22.4-7.4-27.6-23.6c-5.2-16.3-1.4-32.1,8.6-35.3
						C2155.2,2478.1,2167.6,2488.7,2172.8,2504.9z"/>
				</g>
			</g>
			<g>
				<g>
					
						<linearGradient id="SVGID_00000033329673863514322400000016881518878851726014_" gradientUnits="userSpaceOnUse" x1="-6216.1421" y1="273.9995" x2="-6213.6909" y2="14.1208" gradientTransform="matrix(-1 0 0 -1 -3409.2798 3710)">
						<stop  offset="0" style="stop-color:#09005D"/>
						<stop  offset="1" style="stop-color:#1A0F91"/>
					</linearGradient>
					<path style="fill:url(#SVGID_00000033329673863514322400000016881518878851726014_);" d="M2885.7,3129.5c0,0,3,16.9,4.3,37
						c0.5,8.6-5.8,16-14.4,16.8c-29.7,2.9-97.4,8.2-140.6,2c-6.1-0.9-8.5-8.3-4-12.5c17.8-16.6,60.8-48.9,131.7-55.9L2885.7,3129.5z
						"/>
					
						<linearGradient id="SVGID_00000029751303104521205620000009922008777826703277_" gradientUnits="userSpaceOnUse" x1="-6278.7847" y1="564.2188" x2="-6292.269" y2="669.6402" gradientTransform="matrix(-1 0 0 -1 -3409.2798 3710)">
						<stop  offset="0" style="stop-color:#FEBBBA"/>
						<stop  offset="1" style="stop-color:#FF928E"/>
					</linearGradient>
					<path style="fill:url(#SVGID_00000029751303104521205620000009922008777826703277_);" d="M2900.5,3091.4l-15,36.8
						c-2.1,5-7.2,8.2-12.6,7.6c-3.7-0.4-8-1.1-12.3-2.4c-8.5-2.6-13.3-11.6-10.7-20.1l11.3-37.9L2900.5,3091.4z"/>
					
						<linearGradient id="SVGID_00000176734641349365948040000018086630645701168318_" gradientUnits="userSpaceOnUse" x1="-6567.2539" y1="270.6895" x2="-6564.8013" y2="10.813" gradientTransform="matrix(-1 0 0 -1 -3409.2798 3710)">
						<stop  offset="0" style="stop-color:#09005D"/>
						<stop  offset="1" style="stop-color:#1A0F91"/>
					</linearGradient>
					<path style="fill:url(#SVGID_00000176734641349365948040000018086630645701168318_);" d="M3157.4,3158.8
						c0,0-30.1,25.2-41.8,57.5c-3.2,8.9,3.6,18.2,13,18.2h61.9c9.1,0,16-8.2,14.4-17.1C3201.1,3195.2,3189.7,3158.9,3157.4,3158.8z"
						/>
					
						<linearGradient id="SVGID_00000071542302066603109660000006042794776347082121_" gradientUnits="userSpaceOnUse" x1="-6573.5005" y1="528.0872" x2="-6586.6411" y2="630.8179" gradientTransform="matrix(-1 0 0 -1 -3409.2798 3710)">
						<stop  offset="0" style="stop-color:#FEBBBA"/>
						<stop  offset="1" style="stop-color:#FF928E"/>
					</linearGradient>
					<path style="fill:url(#SVGID_00000071542302066603109660000006042794776347082121_);" d="M3194.7,3126.1
						c0,0-6.1,26.9-10.8,44.7c-0.8,3.2-4.3,5-7.4,3.9c-9.4-3.4-17-4.8-22.5-4.1c-2.6,0.3-4.8-1.8-4.8-4.4l-0.6-44.7L3194.7,3126.1z"
						/>
					
						<linearGradient id="SVGID_00000155864618945557515570000010736799629328278957_" gradientUnits="userSpaceOnUse" x1="-6665.3276" y1="918.4473" x2="-6260.8799" y2="918.4473" gradientTransform="matrix(-1 0 0 -1 -3409.2798 3710)">
						<stop  offset="0" style="stop-color:#09005D"/>
						<stop  offset="1" style="stop-color:#1A0F91"/>
					</linearGradient>
					<path style="fill:url(#SVGID_00000155864618945557515570000010736799629328278957_);" d="M3034.7,2520.6l-183.1,558.5
						c0,0,35.1,23,51.8,22l217.4-448.8c0,0,38.1,276.6,19.6,475.1l62.3,4.8c0,0,101.3-507.4,24.6-681.2L3034.7,2520.6z"/>
					
						<linearGradient id="SVGID_00000132064970805870269600000016557643525895572624_" gradientUnits="userSpaceOnUse" x1="-6581.436" y1="980.4983" x2="-6566.7261" y2="1009.9185" gradientTransform="matrix(-1 0 0 -1 -3409.2798 3710)">
						<stop  offset="0" style="stop-color:#4F52FF"/>
						<stop  offset="1" style="stop-color:#4042E2"/>
					</linearGradient>
					<path style="fill:url(#SVGID_00000132064970805870269600000016557643525895572624_);" d="M3119.7,2647.5c0.1,0,0.1,0,0.2,0
						c1-0.1,1.7-1,1.5-2l-7.1-56.4c-0.1-1-1-1.6-2-1.5c-1,0.1-1.7,1-1.5,2l7.1,56.4C3118.1,2646.8,3118.8,2647.5,3119.7,2647.5z"/>
				</g>
				
					<linearGradient id="SVGID_00000113326392124902132720000002709737974150345895_" gradientUnits="userSpaceOnUse" x1="2921.9624" y1="1240.6003" x2="3465.3254" y2="1950.3677" gradientTransform="matrix(1 0 0 -1 0 3710)">
					<stop  offset="0" style="stop-color:#FE7062"/>
					<stop  offset="1" style="stop-color:#FF928E"/>
				</linearGradient>
				<path style="fill:url(#SVGID_00000113326392124902132720000002709737974150345895_);" d="M3000.3,2029.2
					c0,0,148.3,13.2,127.3,118.8c0,0,82,154.3,120.3,336c1.2,5.9-2.7,11.7-8.7,12.7l-247,42.3c-6.8,1.2-13.4-3.1-15.1-9.8l-59-228.1
					l-23,106l-73.1-19l61.5-311.6C2883.6,2076.6,2892.2,2031.1,3000.3,2029.2z"/>
				
					<linearGradient id="SVGID_00000078735172054277280880000014115973918575889815_" gradientUnits="userSpaceOnUse" x1="-1756.6169" y1="9630.3965" x2="-2859.6731" y2="7655.6587" gradientTransform="matrix(-1 0 0 -1 -3409.2798 3710)">
					<stop  offset="0" style="stop-color:#E1473D"/>
					<stop  offset="1" style="stop-color:#E9605A"/>
				</linearGradient>
				<path style="fill:url(#SVGID_00000078735172054277280880000014115973918575889815_);" d="M2916.9,2291c0.1,0,0.3,0,0.4,0
					c1-0.2,1.6-1.2,1.4-2.2l-20.6-94.5c-0.2-1-1.2-1.6-2.2-1.4c-1,0.2-1.6,1.2-1.4,2.2l20.6,94.5
					C2915.3,2290.4,2916.1,2291,2916.9,2291z"/>
				
					<linearGradient id="SVGID_00000049904649378016689540000014017765940634746279_" gradientUnits="userSpaceOnUse" x1="-6474.1865" y1="1202.8076" x2="-6290.0225" y2="1202.8076" gradientTransform="matrix(-1 0 0 -1 -3409.2798 3710)">
					<stop  offset="0" style="stop-color:#FEBBBA"/>
					<stop  offset="1" style="stop-color:#FF928E"/>
				</linearGradient>
				<path style="fill:url(#SVGID_00000049904649378016689540000014017765940634746279_);" d="M2931.8,2572.3
					c7.8-4.3,16.9-5.5,25.5-3.3l17.2,4.3c3.7,0.9,7.3-1.6,7.7-5.3l17.8-158.3c22.2,10.6,54.3,9.3,64.9,8.5l-40.9,186.6h-143.2
					L2931.8,2572.3z"/>
				
					<linearGradient id="SVGID_00000102533782655459963770000015500346994875985313_" gradientUnits="userSpaceOnUse" x1="-6304.478" y1="1433.6691" x2="-5960.5596" y2="1433.6691" gradientTransform="matrix(-1 0 0 -1 -3409.2798 3710)">
					<stop  offset="0" style="stop-color:#FEBBBA"/>
					<stop  offset="1" style="stop-color:#FF928E"/>
				</linearGradient>
				<path style="fill:url(#SVGID_00000102533782655459963770000015500346994875985313_);" d="M2551.3,2229l4.3-14.4
					c2.5-8.3,8.6-15,16.6-18.2l78.3-31.5c0,0,1.2-10-16.5-16.9c-17.7-6.8-13.6-26.7-13.6-26.7s24.2,11,59.7,28.6
					c20.3,10,31.7,27.7,37.7,41l177.4,216.3l-20.8,14.3c-27.4,18.8-65.1,9.6-80.6-19.8l-96.1-184.3
					C2649.4,2231.9,2600.5,2234.7,2551.3,2229z"/>
				<g>
					
						<linearGradient id="SVGID_00000105415217957694794690000003088333750110332812_" gradientUnits="userSpaceOnUse" x1="-6428.2925" y1="1626.5596" x2="-6308.6011" y2="1749.3599" gradientTransform="matrix(-1 0 0 -1 -3409.2798 3710)">
						<stop  offset="0" style="stop-color:#FEBBBA"/>
						<stop  offset="1" style="stop-color:#FF928E"/>
					</linearGradient>
					<path style="fill:url(#SVGID_00000105415217957694794690000003088333750110332812_);" d="M2952.3,1928.3l45.6,127.7
						c0,0-40.4,31.6-69.9,20.9l-23-73.2C2905.1,2003.6,2922.6,1914.2,2952.3,1928.3z"/>
					<g>
						
							<linearGradient id="SVGID_00000054242328692253475970000016277414436481206707_" gradientUnits="userSpaceOnUse" x1="-6254.7109" y1="1826.7318" x2="-6403.9365" y2="1629.319" gradientTransform="matrix(-1 0 0 -1 -3409.2798 3710)">
							<stop  offset="0" style="stop-color:#FEBBBA"/>
							<stop  offset="1" style="stop-color:#FF928E"/>
						</linearGradient>
						<path style="fill:url(#SVGID_00000054242328692253475970000016277414436481206707_);" d="M2816.1,1882.4
							c0,2,43.9,124.4,43.9,124.4l69.4-26.6l-24.4-122.2C2905.1,1858,2816.1,1849.5,2816.1,1882.4z"/>
						
							<linearGradient id="SVGID_00000004516946603203158900000001350716353246358429_" gradientUnits="userSpaceOnUse" x1="-6368.6753" y1="1779.1107" x2="-6190.4229" y2="1779.1107" gradientTransform="matrix(-1 0 0 -1 -3409.2798 3710)">
							<stop  offset="0" style="stop-color:#09005D"/>
							<stop  offset="1" style="stop-color:#1A0F91"/>
						</linearGradient>
						<path style="fill:url(#SVGID_00000004516946603203158900000001350716353246358429_);" d="M2892.9,1887.8l17.9,63.3
							c0.2,0.8,0.3,1.6,0.3,2.5c0,5.2-1.3,22.9-19.4,20.5c-16.4-2.2-31.5-4-41,0.5c-4.3,2-6.3,7-4.7,11.4c4,11.1,13.5,36,25,56.4
							c2.3,4.1,7.5,5.7,11.8,3.8c13-5.9,40.2-19.2,59.5-35c2.6-2.1,3.9-5.5,3.3-8.8c-3-16.2-12.1-65.5-12.5-79.6
							c-0.4-13.3,14.5-23.4,21-27.2c2.1-1.2,3.7-3.3,4.3-5.7c2.1-8.5,3.8-27.8-20.8-32.1c-5.2-0.9-8.5-5.8-7.5-10.9
							c2.1-10.2,1.4-25.2-18-30.7c-19.7-5.6-32.1,6.2-38.4,15.3c-2.5,3.7-7.3,4.9-11.4,3c-2.3-1-5.1-1.1-8.2,1.5
							c-4.1,3.4-10.3,2.4-13.2-2c-5.7-8.5-16.2-16.9-33.8-11.2c-31.3,10.1-29.8,46.3-18.4,65.9c11.5,19.6,44.8,6.7,60.6-6.3
							c12-9.9,30.3-4,38.4-0.6C2890.2,1882.9,2892.1,1885.1,2892.9,1887.8z"/>
						
							<linearGradient id="SVGID_00000082330753227330851190000013796995558535326121_" gradientUnits="userSpaceOnUse" x1="-6473.2666" y1="1670.3965" x2="-6353.5762" y2="1793.1957" gradientTransform="matrix(-1 0 0 -1 -3409.2798 3710)">
							<stop  offset="0" style="stop-color:#FEBBBA"/>
							<stop  offset="1" style="stop-color:#FF928E"/>
						</linearGradient>
						<path style="fill:url(#SVGID_00000082330753227330851190000013796995558535326121_);" d="M2939.3,1946c0,0-18.5-35.1-6.3-46.1
							c12.3-11,33-9.2,32.5,18.2C2964.8,1952.2,2939.3,1946,2939.3,1946z"/>
					</g>
				</g>
				
					<linearGradient id="SVGID_00000073692733835445826270000006481172493064867997_" gradientUnits="userSpaceOnUse" x1="-1852.1239" y1="9683.7432" x2="-2955.1782" y2="7709.0083" gradientTransform="matrix(-1 0 0 -1 -3409.2798 3710)">
					<stop  offset="0" style="stop-color:#E1473D"/>
					<stop  offset="1" style="stop-color:#E9605A"/>
				</linearGradient>
				<path style="fill:url(#SVGID_00000073692733835445826270000006481172493064867997_);" d="M3050.5,2420.5
					c10.1,0,17.3-0.8,18.1-0.9l1.3-0.1l54-251.8c0.2-1-0.4-2-1.4-2.2c-1-0.2-2,0.4-2.2,1.4l-53.4,249.2c-8,0.7-51,3.6-73.6-12.5
					l46.8-218.8l-9.8-18.4c-0.5-0.9-1.6-1.2-2.5-0.8c-0.9,0.5-1.2,1.6-0.8,2.5l9.1,17.2l-47,219.8l0.9,0.7
					C3006.5,2418.2,3032.9,2420.5,3050.5,2420.5z"/>
			</g>
			<g>
				<path class="st3" d="M2742.2,2641.2H3028v-29.5h-285.8C2748.3,2611.7,2748.3,2641.2,2742.2,2641.2z"/>
				
					<linearGradient id="SVGID_00000178201333995681017880000001905285771019934089_" gradientUnits="userSpaceOnUse" x1="1498.4342" y1="920.7717" x2="1497.2089" y2="994.2957" gradientTransform="matrix(-1 0 0 -1 4390.7202 3710)">
					<stop  offset="0" style="stop-color:#4F52FF"/>
					<stop  offset="1" style="stop-color:#4042E2"/>
				</linearGradient>
				<path style="fill:url(#SVGID_00000178201333995681017880000001905285771019934089_);" d="M3027,2641.2c0.6,0,1-0.4,1-1v-27.5
					c0-0.6-0.4-1-1-1h-292.5c-0.6,0-1-0.4-1-1v-4.7c0-0.6,0.4-1,1-1h309.9c6.8,0,12.3,5.5,12.3,12.3v18.9c0,6.4-5.2,11.6-11.6,11.6
					h-310.6c-0.6,0-1-0.4-1-1v-4.7c0-0.6,0.4-1,1-1H3027z"/>
			</g>
			<g>
				<g>
					<path class="st8" d="M1832.4,3202.6c-1.2,0-2.5-0.3-3.7-0.8c-4.8-2.2-7-8.3-4.9-13.5l197.3-500.7c2.1-5.2,7.6-7.6,12.4-5.4
						c4.8,2.2,7,8.3,4.9,13.5L1841,3196.4C1839.5,3200.3,1836,3202.6,1832.4,3202.6z"/>
					<path class="st8" d="M2054.7,3202.6c-3.6,0-7.1-2.3-8.6-6.2l-197.3-500.7c-2.1-5.2,0.2-11.3,4.9-13.5
						c4.8-2.2,10.3,0.2,12.4,5.4l197.3,500.7c2.1,5.2-0.2,11.3-4.9,13.5C2057.2,3202.3,2055.9,3202.6,2054.7,3202.6z"/>
					<path class="st8" d="M2770.8,3191.6c-1.2,0-2.5-0.3-3.7-0.8c-4.8-2.2-7-8.3-4.9-13.5l197.3-500.7c2.1-5.2,7.6-7.6,12.4-5.4
						c4.8,2.2,7,8.3,4.9,13.5l-197.3,500.7C2777.9,3189.3,2774.5,3191.6,2770.8,3191.6z"/>
					<path class="st8" d="M2993.1,3191.6c-3.6,0-7.1-2.3-8.6-6.2l-197.3-500.7c-2.1-5.2,0.2-11.3,4.9-13.5
						c4.8-2.2,10.3,0.2,12.4,5.4l197.3,500.7c2.1,5.2-0.2,11.3-4.9,13.5C2995.6,3191.4,2994.4,3191.6,2993.1,3191.6z"/>
				</g>
				<path class="st8" d="M3069.5,2661.1c0.7-3.3-0.3-6.7-2.7-9.3c-2.5-2.6-6.1-4.1-10-4.1H1750.7c-5.1,0-9.8,2.2-12.5,6
					c-2.7,3.7-3.1,8.4-1,12.4l14.2,26.6c3.2,6.1,10.3,10,18,10h1278.5c7.2,0,13.4-4.4,14.7-10.6L3069.5,2661.1z"/>
			</g>
		</g>
		<g>
			<g>
				<g class="st40">
					<path class="st8" d="M2809.4,1404.5c-1.6-2.4-1.2-5.7,1-7.6c5-4.2,10.2-8.3,15.6-12c2.6-1.8,6.2-1.2,8,1.4c0,0,0,0.1,0.1,0.1
						c1.8,2.6,1.1,6.1-1.4,7.9c-5.1,3.6-10,7.4-14.8,11.4c-2.4,2.1-6.1,1.8-8.1-0.7C2809.7,1404.8,2809.6,1404.6,2809.4,1404.5z
						 M2851.2,1376.5c-0.1-0.2-0.2-0.4-0.4-0.6c-1.5-2.8-0.4-6.3,2.5-7.8c5.8-3,11.8-5.8,17.8-8.3c2.9-1.2,6.3,0.2,7.5,3.1
						c1.2,2.9-0.2,6.3-3.1,7.5c-5.7,2.4-11.4,5-16.9,7.9C2856,1379.7,2852.8,1378.9,2851.2,1376.5z M2898.1,1358.4
						c-0.4-0.5-0.6-1.1-0.8-1.8c-0.8-3.1,1-6.2,4.1-7c6.3-1.7,12.8-3,19.2-4.1c3.1-0.5,6.1,1.6,6.7,4.7c0.5,3.1-1.6,6.1-4.7,6.7
						c-6.1,1-12.3,2.4-18.3,3.9C2901.9,1361.4,2899.4,1360.4,2898.1,1358.4z M2947.8,1351.3c-0.6-0.9-1-1.9-1-3.1
						c-0.1-3.2,2.4-5.8,5.6-5.9c6.5-0.2,13.2-0.1,19.7,0.3c3.2,0.2,5.6,2.9,5.4,6.1c-0.2,3.2-2.9,5.6-6.1,5.4
						c-6.2-0.3-12.5-0.4-18.7-0.2C2950.7,1353.9,2948.9,1352.9,2947.8,1351.3z M2997.9,1355.4c-0.8-1.2-1.2-2.8-0.9-4.4
						c0.6-3.1,3.6-5.2,6.8-4.5c6.4,1.3,12.8,2.8,19.1,4.6c3.1,0.9,4.8,4.1,4,7.1c-0.9,3.1-4.1,4.8-7.1,4c-6-1.7-12.1-3.2-18.2-4.4
						C3000,1357.5,2998.8,1356.6,2997.9,1355.4z M3045.9,1370.5c-1.1-1.6-1.3-3.7-0.5-5.6c1.3-2.9,4.7-4.2,7.6-2.9
						c6,2.6,11.9,5.6,17.6,8.7c2.8,1.5,3.8,5,2.3,7.8c-1.5,2.8-5,3.8-7.8,2.3c-5.4-3-11.1-5.8-16.7-8.3
						C3047.3,1372.1,3046.4,1371.4,3045.9,1370.5z M3176.1,1537.6c-0.4-0.7-0.8-1.4-0.9-2.3c-1.1-6.1-2.4-12.3-4-18.3
						c-0.8-3.1,1-6.2,4.1-7c3.1-0.8,6.2,1,7,4.1c1.7,6.3,3.1,12.8,4.2,19.2c0.5,3.1-1.6,6.1-4.7,6.7
						C3179.6,1540.4,3177.4,1539.4,3176.1,1537.6z M3089.2,1395.9c-1.3-2-1.4-4.7,0.1-6.7c1.9-2.6,5.5-3.1,8.1-1.2
						c5.2,3.9,10.4,8.1,15.2,12.4c2.4,2.1,2.6,5.8,0.5,8.1c-2.1,2.4-5.8,2.6-8.1,0.5c-4.6-4.1-9.5-8.1-14.5-11.8
						C3090,1396.9,3089.6,1396.4,3089.2,1395.9z M3162.1,1489.4c-0.2-0.3-0.4-0.7-0.6-1c-2.4-5.7-5.1-11.4-8-16.9
						c-1.5-2.8-0.4-6.3,2.4-7.8c2.8-1.5,6.3-0.4,7.8,2.4c3,5.8,5.8,11.8,8.4,17.8c1.2,2.9-0.2,6.3-3.1,7.6
						C3166.5,1492.5,3163.6,1491.6,3162.1,1489.4z M3125.8,1430.3c-1.6-2.4-1.2-5.7,1-7.6c2.4-2.1,6.1-1.8,8.1,0.7
						c4.2,5,8.3,10.2,12.1,15.5c0,0,0,0.1,0.1,0.1c1.8,2.6,1.1,6.1-1.4,7.9c-2.6,1.8-6.2,1.2-8-1.4c-3.6-5.1-7.5-10-11.5-14.7
						C3126.1,1430.6,3126,1430.4,3125.8,1430.3z"/>
					<path class="st8" d="M3179.4,1578c-0.6-0.9-1-2.1-1-3.3c0-3,0-6-0.1-9c-0.1-3.2,2.4-5.8,5.6-5.9c3.2-0.1,5.9,2.4,5.9,5.6
						c0.1,3.1,0.1,6.3,0.1,9.5c0,3.2-2.6,5.7-5.8,5.7C3182.1,1580.5,3180.4,1579.5,3179.4,1578z"/>
				</g>
				<g class="st40">
					<path class="st8" d="M3109.1,1739.2c-1.6-2.3-1.3-5.5,0.8-7.4c2.2-2,4.3-4.2,6.4-6.3c2.2-2.3,5.9-2.3,8.2-0.1
						c2.3,2.2,2.3,5.9,0.1,8.2c-2.2,2.3-4.5,4.5-6.8,6.6c-2.3,2.2-6,2.1-8.2-0.2C3109.4,1739.7,3109.2,1739.4,3109.1,1739.2z"/>
					<path class="st8" d="M2769.1,1702.5c-1.5-2.2-3-4.4-4.4-6.7c-1.7-2.7-0.9-6.3,1.8-8c2.7-1.7,6.3-0.9,8,1.8
						c3.3,5.2,6.8,10.3,10.5,15.1c1.9,2.5,1.4,6.2-1.1,8.1c-2.5,1.9-6.2,1.4-8.1-1.1C2773.5,1708.7,2771.2,1705.6,2769.1,1702.5z
						 M2750.2,1669c-0.2-0.3-0.3-0.6-0.5-0.9c-2.7-5.9-5.1-11.9-7.3-17.9c-1.1-3,0.5-6.3,3.5-7.4c3-1.1,6.3,0.5,7.4,3.5
						c2.1,5.7,4.4,11.5,6.9,17c1.3,2.9,0,6.3-2.9,7.6C2754.8,1672.2,2751.8,1671.3,2750.2,1669z M2795.6,1734.6
						c-1.5-2.2-1.3-5.3,0.7-7.3c2.3-2.2,5.9-2.2,8.2,0c4.3,4.3,8.8,8.5,13.5,12.5c2.4,2.1,2.7,5.7,0.7,8.1c-2.1,2.4-5.7,2.7-8.1,0.7
						c-4.9-4.2-9.7-8.6-14.2-13.1C2796.1,1735.2,2795.8,1734.9,2795.6,1734.6z M2734.8,1622c-0.4-0.6-0.7-1.3-0.9-2.1
						c-1.3-6.3-2.4-12.7-3.2-19.1c-0.4-3.2,1.9-6,5-6.4c3.2-0.4,6,1.9,6.4,5c0.7,6.1,1.8,12.2,3,18.1c0.7,3.1-1.3,6.2-4.5,6.8
						C2738.4,1624.9,2736.1,1623.9,2734.8,1622z M2834.2,1765.5c-1.3-1.8-1.4-4.3-0.1-6.3c1.7-2.7,5.3-3.5,8-1.8
						c5.1,3.3,10.5,6.4,15.9,9.2c2.8,1.5,3.9,5,2.4,7.8c-1.5,2.8-5,3.9-7.8,2.4c-5.7-3-11.3-6.2-16.8-9.7
						C2835.2,1766.7,2834.6,1766.2,2834.2,1765.5z M2878.6,1787.3c-1-1.5-1.3-3.4-0.7-5.2c1.1-3,4.4-4.6,7.4-3.5
						c5.8,2.1,11.7,3.9,17.5,5.5c3.1,0.8,4.9,4,4.1,7.1c-0.8,3.1-4,4.9-7.1,4.1c-6.2-1.7-12.4-3.6-18.5-5.8
						C2880.2,1789,2879.3,1788.2,2878.6,1787.3z M2926.7,1798.8c-0.8-1.1-1.1-2.5-1-4c0.4-3.2,3.3-5.4,6.4-5
						c6.1,0.8,12.2,1.3,18.3,1.5c3.2,0.1,5.7,2.8,5.5,6c-0.1,3.2-2.8,5.7-6,5.5c-6.4-0.3-12.9-0.8-19.3-1.6
						C2929,1801.1,2927.6,1800.1,2926.7,1798.8z M2976.1,1799.6c-0.5-0.8-0.9-1.7-1-2.7c-0.3-3.2,2-6,5.2-6.3
						c6.1-0.6,12.2-1.4,18.2-2.5c3.1-0.6,6.1,1.5,6.7,4.6c0.6,3.1-1.5,6.1-4.6,6.7c-6.3,1.1-12.8,2-19.2,2.6
						C2979.3,1802.3,2977.3,1801.3,2976.1,1799.6z M3024.6,1789.5c-0.3-0.4-0.5-0.9-0.7-1.4c-1-3,0.7-6.3,3.7-7.3
						c5.8-1.9,11.6-4.1,17.2-6.5c2.9-1.2,6.3,0.1,7.6,3.1c1.2,2.9-0.1,6.3-3.1,7.6c-5.9,2.5-12,4.8-18.1,6.8
						C3028.6,1792.5,3026,1791.5,3024.6,1789.5z M3069.6,1769c-0.1-0.1-0.1-0.2-0.2-0.3c-1.6-2.7-0.7-6.3,2-7.9
						c3.9-2.3,7.7-4.7,11.4-7.3c1.3-0.9,2.7-1.8,4-2.8c2.6-1.8,6.2-1.2,8,1.3c1.9,2.6,1.2,6.2-1.3,8c-1.4,1-2.8,2-4.2,2.9
						c-3.9,2.7-7.9,5.2-12,7.6C3074.7,1772.2,3071.3,1771.5,3069.6,1769z"/>
					<path class="st8" d="M2730.1,1572.6c-0.6-0.9-1-2.1-1-3.3c0-3.1,0.2-6.3,0.3-9.5c0.2-3.2,2.9-5.6,6.1-5.4
						c3.2,0.2,5.6,2.9,5.4,6.1c-0.2,3-0.3,6-0.3,9c0,3.2-2.7,5.7-5.9,5.7C2732.8,1575.1,2731.1,1574.1,2730.1,1572.6z"/>
				</g>
				<g>
					<path class="st8" d="M2789.8,1541.4c-0.3,1.1,0.1,2.3,1,3l26.7,19.1c-0.9,15.3,0.6,30.9,4.8,46.1l-22.2,24.2
						c-0.8,0.8-0.9,2.1-0.4,3.1l18.8,34.6c0.5,1,1.7,1.6,2.8,1.4l32.4-5.4c10.5,11.8,22.7,21.6,36,29.2l1.4,32.8
						c0.1,1.1,0.8,2.1,1.9,2.5l37.7,11.2c1.1,0.3,2.3-0.1,3-1l19.1-26.7c15.3,0.9,30.9-0.6,46.1-4.8l24.2,22.2
						c0.8,0.8,2.1,0.9,3.1,0.4l34.6-18.8c1-0.5,1.6-1.7,1.4-2.8l-5.4-32.4c11.8-10.5,21.6-22.7,29.2-36l32.8-1.4
						c1.1-0.1,2.1-0.8,2.5-1.9l11.2-37.7c0.3-1.1-0.1-2.3-1-3l-26.7-19.1c0.9-15.3-0.6-30.9-4.8-46.1l22.2-24.2
						c0.8-0.8,0.9-2.1,0.4-3.1l-18.8-34.6c-0.5-1-1.7-1.6-2.8-1.4l-32.4,5.4c-10.5-11.8-22.7-21.6-36-29.2l-1.4-32.8
						c0-1.1-0.8-2.1-1.9-2.5l-37.7-11.2c-1.1-0.3-2.3,0.1-3,1l-19.1,26.7c-15.3-0.9-30.9,0.6-46.1,4.8l-24.2-22.2
						c-0.8-0.8-2.1-0.9-3.1-0.4l-34.6,18.8c-1,0.5-1.6,1.7-1.4,2.8l5.4,32.4c-11.8,10.5-21.6,22.7-29.2,36l-32.8,1.4
						c-1.1,0.1-2.1,0.8-2.5,1.9L2789.8,1541.4z"/>
					<g>
						<path class="st1" d="M2928.3,1594c-10.9-15.9-8.7-37.9,5.9-51.4c16.1-14.8,41.1-13.7,55.9,2.3c7.2,7.8,10.9,17.9,10.4,28.4
							c-0.4,10.6-5,20.3-12.7,27.5c-16.1,14.8-41.1,13.7-55.9-2.3C2930.6,1597.1,2929.4,1595.6,2928.3,1594z M2986.2,1554.8
							c-0.8-1.2-1.8-2.4-2.8-3.5c-11.3-12.3-30.6-13.1-42.9-1.8c-12.3,11.3-13.1,30.6-1.8,42.9c11.3,12.3,30.6,13.1,42.9,1.8
							c6-5.5,9.4-13,9.8-21.1C2991.6,1566.5,2989.8,1560.1,2986.2,1554.8z"/>
					</g>
					<g>
						<path class="st1" d="M2881.5,1626.8c-1.9-2.7-3.6-5.6-5.2-8.5l0,0c-0.5-0.9-1-1.9-1.5-2.8c-2.3-4.7-4.3-9.5-5.9-14.4
							c0-0.1,0-0.1-0.1-0.2c-0.1-0.2-0.1-0.4-0.2-0.6c-0.1-0.4-0.2-0.7-0.3-1.1c-0.3-1,0.1-2,0.9-2.6c0.2-0.1,0.4-0.2,0.7-0.3
							c1.2-0.4,2.5,0.3,2.9,1.6c1.8,6.3,4.4,12.4,7.5,18.2c15.6,28.9,44.5,46.1,75.1,48.3c17,1.2,34.5-2.2,50.6-10.9
							c2.8-1.5,5.5-3.2,8.1-5c17.6-12,30.4-29.5,36.5-50.1c7.1-23.7,4.4-48.8-7.4-70.5c-24.4-44.9-80.7-61.7-125.6-37.3
							c-2.8,1.5-5.5,3.1-8,4.9c-11.2,7.6-20.6,17.6-27.5,29.3c-0.2,0.3-0.4,0.5-0.7,0.7c-0.7,0.5-1.7,0.5-2.5,0.1
							c-1.1-0.7-1.5-2.1-0.8-3.2c7.3-12.3,17.1-22.8,28.9-30.8c2.7-1.8,5.5-3.6,8.4-5.1c47.2-25.6,106.3-8,131.9,39.2
							c12.4,22.8,15.1,49.2,7.7,74.1c-6.4,21.7-19.9,40.1-38.4,52.6c-2.7,1.9-5.6,3.6-8.6,5.2c-22.9,12.4-49.2,15.1-74.1,7.7
							C2912.4,1658.8,2894.1,1645.3,2881.5,1626.8z"/>
					</g>
				</g>
			</g>
			<g>
				<g class="st40">
					<path class="st8" d="M2573,1327.2c-0.9-1.3-0.8-3,0.2-4.3c1.9-2.3,3.9-4.6,6-6.9c1.3-1.4,3.6-1.5,5-0.2c1.4,1.3,1.5,3.6,0.2,5
						c-2,2.1-3.9,4.3-5.7,6.5c-1.2,1.5-3.5,1.7-5,0.5C2573.4,1327.8,2573.2,1327.5,2573,1327.2z"/>
					<path class="st8" d="M2592.3,1307.7c-1-1.5-0.8-3.5,0.7-4.7c4-3.4,8.2-6.5,12.5-9.5c0.9-0.6,1.8-1.2,2.7-1.8
						c1.7-1.1,3.9-0.5,4.9,1c1.1,1.7,0.6,3.9-1,4.9c-0.9,0.6-1.8,1.2-2.6,1.7c-4.1,2.8-8.1,5.8-11.9,9c-1.5,1.3-3.8,1.1-5-0.4
						C2592.4,1307.9,2592.3,1307.8,2592.3,1307.7z M2623.3,1287.6c-0.1-0.1-0.2-0.3-0.3-0.4c-0.9-1.8-0.1-3.9,1.6-4.8
						c5.7-2.8,11.6-5.2,17.5-7.3c1.9-0.6,3.9,0.4,4.5,2.2c0.6,1.9-0.3,3.9-2.2,4.5c-5.7,2-11.3,4.3-16.7,6.9
						C2626.2,1289.6,2624.3,1289,2623.3,1287.6z M2658.3,1275.5c-0.3-0.4-0.4-0.8-0.5-1.3c-0.4-1.9,0.8-3.8,2.8-4.2
						c6.2-1.3,12.5-2.2,18.8-2.7c2-0.2,3.7,1.3,3.8,3.3c0.2,2-1.3,3.7-3.3,3.8c-6,0.5-12,1.4-17.9,2.6
						C2660.5,1277.3,2659.1,1276.7,2658.3,1275.5z M2695.1,1272.5c-0.4-0.6-0.6-1.4-0.6-2.1c0.1-2,1.7-3.5,3.7-3.4
						c6.3,0.3,12.7,0.9,18.9,1.9c1.9,0.3,3.3,2.2,2.9,4.1c-0.3,1.9-2.2,3.3-4.1,2.9c-5.9-1-12-1.6-18-1.8
						C2696.8,1274,2695.8,1273.4,2695.1,1272.5z M2731.7,1278.5c-0.6-0.9-0.8-1.9-0.5-3c0.6-1.9,2.5-3,4.4-2.4
						c6.1,1.8,12,4,17.8,6.5c1.8,0.8,2.6,2.9,1.9,4.7s-2.9,2.6-4.7,1.9c-5.5-2.4-11.2-4.5-17-6.2
						C2732.8,1279.7,2732.1,1279.2,2731.7,1278.5z M2765.6,1293.2c-0.8-1.1-0.8-2.6-0.1-3.8c1-1.7,3.2-2.3,4.9-1.3
						c5.4,3.2,10.7,6.8,15.7,10.6c1.6,1.2,1.8,3.4,0.6,5c-1.2,1.6-3.4,1.8-5,0.6c-4.8-3.7-9.8-7.1-15-10.1
						C2766.2,1294,2765.9,1293.6,2765.6,1293.2z M2794.9,1315.8c-0.9-1.4-0.8-3.3,0.4-4.5c1.4-1.4,3.6-1.4,5,0
						c4.5,4.4,8.7,9.2,12.6,14.1c1.2,1.6,0.9,3.8-0.6,5c-1.5,1.2-3.8,1-5-0.6c-3.7-4.7-7.8-9.3-12-13.5
						C2795.1,1316.1,2795,1316,2794.9,1315.8z M2826.4,1361.3c-0.1-0.2-0.2-0.4-0.3-0.5c-2.1-4.7-4.6-9.4-7.2-14
						c-0.4-0.7-0.8-1.4-1.2-2c-1-1.7-0.5-3.9,1.2-4.9c1.7-1,3.9-0.5,4.9,1.2c0.4,0.7,0.9,1.4,1.3,2.2c2.8,4.7,5.3,9.7,7.5,14.7
						c0.8,1.8,0,3.9-1.8,4.7C2829.2,1363.2,2827.3,1362.7,2826.4,1361.3z"/>
				</g>
				<g class="st40">
					<path class="st8" d="M2566.1,1509c-1.1-1.6-0.7-3.8,0.9-4.9c1.6-1.1,3.8-0.7,5,0.9c3.4,4.9,7.1,9.5,11.1,13.9
						c1.3,1.5,1.2,3.7-0.3,5c-1.5,1.3-3.7,1.2-5-0.3C2573.6,1519,2569.7,1514.1,2566.1,1509C2566.1,1509,2566.1,1509,2566.1,1509z
						 M2556.5,1493.5c-0.1-0.1-0.1-0.2-0.2-0.3c-2.9-5.5-5.5-11.2-7.8-17c-0.7-1.8,0.2-3.9,2-4.6c1.8-0.7,3.9,0.2,4.6,2
						c2.1,5.5,4.6,11,7.4,16.2c0.9,1.7,0.3,3.9-1.5,4.8C2559.5,1495.5,2557.5,1495,2556.5,1493.5z M2590.4,1536.1
						c-0.9-1.3-0.8-3.1,0.3-4.3c1.3-1.5,3.5-1.6,5-0.3c4.5,3.9,9.2,7.5,14.1,10.8c1.6,1.1,2.1,3.3,1,4.9c-1.1,1.6-3.3,2.1-4.9,1
						c-5.1-3.5-10.1-7.3-14.8-11.4C2590.7,1536.6,2590.5,1536.3,2590.4,1536.1z M2543.4,1459.5c-0.2-0.3-0.4-0.7-0.5-1.1
						c-1.5-6-2.7-12.2-3.5-18.3c-0.2-2,1.1-3.7,3.1-4c1.9-0.2,3.7,1.1,4,3.1c0.7,5.9,1.9,11.8,3.3,17.5c0.5,1.9-0.7,3.8-2.6,4.3
						C2545.7,1461.4,2544.2,1460.7,2543.4,1459.5z M2620.5,1556.5c-0.7-1-0.8-2.4-0.2-3.6c0.9-1.8,3-2.4,4.8-1.5
						c5.3,2.7,10.7,5.1,16.3,7.1c1.9,0.7,2.8,2.7,2.1,4.6c-0.7,1.8-2.7,2.8-4.6,2.1c-5.8-2.1-11.6-4.7-17.1-7.5
						C2621.3,1557.3,2620.8,1556.9,2620.5,1556.5z M2654.6,1569c-0.5-0.8-0.8-1.8-0.5-2.8c0.5-1.9,2.4-3.1,4.3-2.7
						c5.8,1.4,11.7,2.4,17.5,3c2,0.2,3.4,2,3.1,3.9c-0.2,2-2,3.4-3.9,3.1c-6.2-0.7-12.3-1.8-18.4-3.2
						C2655.9,1570.3,2655.1,1569.7,2654.6,1569z M2690.8,1573.1c-0.4-0.6-0.6-1.2-0.6-2c0-2,1.6-3.6,3.5-3.6
						c5.9-0.1,11.9-0.5,17.8-1.3c1.9-0.3,3.7,1.1,4,3.1c0.3,2-1.1,3.7-3.1,4c-6.1,0.8-12.4,1.3-18.6,1.3
						C2692.6,1574.6,2691.5,1574,2690.8,1573.1z"/>
					<path class="st8" d="M2538.8,1423.2c-0.4-0.6-0.6-1.3-0.6-2c0-3.1,0.1-6.1,0.2-9.1c0.1-2,1.8-3.5,3.8-3.4
						c2,0.1,3.5,1.8,3.4,3.8c-0.2,2.9-0.2,5.8-0.2,8.7c0,2-1.6,3.6-3.6,3.6C2540.5,1424.8,2539.5,1424.2,2538.8,1423.2z"/>
				</g>
				<g>
					<path class="st8" d="M2578.5,1399.8c-0.2,0.7,0.1,1.5,0.7,2l17.9,12.8c-0.6,10.2,0.4,20.6,3.2,30.8l-14.8,16.2
						c-0.5,0.6-0.6,1.4-0.3,2.1l12.5,23.2c0.4,0.7,1.1,1,1.9,0.9l21.6-3.6c7,7.9,15.2,14.4,24.1,19.5l0.9,21.9
						c0,0.8,0.6,1.4,1.3,1.7l25.2,7.5c0.7,0.2,1.5-0.1,2-0.7l12.8-17.9c10.2,0.6,20.6-0.4,30.8-3.2l16.2,14.8
						c0.6,0.5,1.4,0.6,2.1,0.3l23.2-12.5c0.7-0.4,1-1.1,0.9-1.9l-3.6-21.7c7.9-7,14.4-15.2,19.5-24.1l21.9-0.9
						c0.8,0,1.4-0.6,1.7-1.3l7.5-25.2c0.2-0.7-0.1-1.5-0.7-2l-17.9-12.8c0.6-10.2-0.4-20.6-3.2-30.8l14.8-16.2
						c0.5-0.6,0.6-1.4,0.3-2.1l-12.5-23.2c-0.4-0.7-1.1-1-1.9-0.9l-21.6,3.6c-7-7.9-15.2-14.4-24.1-19.5l-0.9-21.9
						c0-0.8-0.6-1.4-1.3-1.7l-25.2-7.5c-0.7-0.2-1.5,0.1-2,0.7l-12.8,17.9c-10.2-0.6-20.6,0.4-30.8,3.2l-16.2-14.8
						c-0.6-0.5-1.4-0.6-2.1-0.3l-23.2,12.5c-0.7,0.4-1,1.1-0.9,1.9l3.6,21.7c-7.9,7-14.4,15.2-19.5,24.1l-21.9,0.9
						c-0.8,0-1.4,0.6-1.7,1.3L2578.5,1399.8z"/>
					<g>
						<path class="st1" d="M2670.8,1435.2c-3.2-4.8-4.9-10.4-4.6-16.2c0.3-7.2,3.4-13.8,8.7-18.7c10.9-10.1,28-9.4,38.1,1.6
							c10.1,11,9.4,28-1.6,38.1c-5.3,4.9-12.2,7.4-19.4,7.1c-7.2-0.3-13.8-3.4-18.7-8.7C2672.4,1437.4,2671.6,1436.3,2670.8,1435.2z
							 M2709.6,1409c-0.5-0.8-1.1-1.6-1.8-2.3c-7.4-8-20-8.6-28-1.2c-3.9,3.6-6.2,8.5-6.4,13.8c-0.2,5.3,1.6,10.3,5.2,14.3l0,0
							c3.6,3.9,8.5,6.2,13.8,6.4c5.3,0.2,10.4-1.6,14.3-5.2C2713.9,1428,2715,1417,2709.6,1409z"/>
					</g>
					<g>
						<path class="st1" d="M2638.2,1458c-1.3-1.9-2.5-3.8-3.6-5.8c-2.2-4-3.9-8.3-5.3-12.6c-0.1-0.2-0.1-0.4-0.2-0.6
							c-0.4-1.5,0.2-3.1,1.4-3.9c0.3-0.2,0.6-0.4,1-0.5c1.9-0.6,3.9,0.5,4.4,2.4c1.2,4.1,2.8,8.1,4.9,11.8l0,0
							c0.1,0.2,0.2,0.4,0.3,0.6c4.9,8.8,11.8,16.1,20.1,21.4c4.5,2.9,9.4,5.1,14.7,6.8c0,0,0.1,0,0.1,0c0.1,0,0.3,0.1,0.4,0.1
							c15.4,4.6,31.6,2.9,45.7-4.8c1.8-1,3.6-2.1,5.3-3.2c11.4-7.7,19.7-19.1,23.7-32.4c4.6-15.4,2.9-31.6-4.8-45.7
							c-7.6-14.1-20.3-24.4-35.7-28.9c-15.4-4.6-31.6-2.9-45.7,4.8c-1.8,1-3.5,2-5.2,3.2c-7.3,4.9-13.4,11.4-17.8,19
							c-0.3,0.5-0.6,0.8-1.1,1.1c-1.1,0.8-2.6,0.8-3.8,0.1c-1.7-1-2.3-3.2-1.3-4.9c5-8.5,11.8-15.7,19.9-21.2
							c1.9-1.3,3.8-2.5,5.8-3.5c15.8-8.5,33.9-10.4,51.1-5.3c17.2,5.1,31.4,16.6,39.9,32.4c8.5,15.8,10.4,33.9,5.3,51.1
							c-4.4,15-13.7,27.6-26.5,36.3c-1.9,1.3-3.9,2.5-5.9,3.6C2695.2,1495.8,2657.4,1486.1,2638.2,1458z"/>
					</g>
				</g>
			</g>
		</g>
		
			<linearGradient id="SVGID_00000147207435764305403250000003439909605382290572_" gradientUnits="userSpaceOnUse" x1="1481.7236" y1="2842.2815" x2="1125.1074" y2="2016.9691" gradientTransform="matrix(1 0 0 -1 0 3710)">
			<stop  offset="0" style="stop-color:#FEBBBA"/>
			<stop  offset="1" style="stop-color:#FF928E"/>
		</linearGradient>
		<path style="fill:url(#SVGID_00000147207435764305403250000003439909605382290572_);" d="M899.5,1381.1
			c0-129.4,161.3-234.3,360.3-234.3s360.3,104.9,360.3,234.3c0,129.4-161.3,234.3-360.3,234.3c-25.1,0-49.6-1.7-73.3-4.9
			c-30.7-4.1-57.4,21.6-54.7,52.4c2.5,28.7,10.8,54,18,71.1c3.4,8.3-5.5,16.3-13.3,12c-72.3-40-98.9-114.9-108.7-166.4
			c-2.5-13.3-10.4-24.8-21.7-32.2C940.4,1505.1,899.5,1446.2,899.5,1381.1z"/>
		<g>
			
				<linearGradient id="SVGID_00000108277882516674314110000012425271502284357033_" gradientUnits="userSpaceOnUse" x1="16864.9062" y1="667.7863" x2="16336.5811" y2="93.1164" gradientTransform="matrix(1 9.500000e-03 9.500000e-03 -1 -15688.6035 3630.8027)">
				<stop  offset="0" style="stop-color:#09005D"/>
				<stop  offset="1" style="stop-color:#1A0F91"/>
			</linearGradient>
			<path style="fill:url(#SVGID_00000108277882516674314110000012425271502284357033_);" d="M1015.2,3164.4c0,0-5.8,30.9-8.7,61.6
				c-1.2,12,8,22.5,20,23.1c40.8,2.1,128.1,6.2,159.5,5.1c4.7-0.2,7.8-5,6.1-9.4l0,0c-1.4-3.7-4.2-6.7-7.8-8.4l-143.6-67.7
				L1015.2,3164.4z"/>
			
				<linearGradient id="SVGID_00000051356078468433395330000002674994318473188493_" gradientUnits="userSpaceOnUse" x1="16693.4199" y1="625.1095" x2="16740.3477" y2="625.1095" gradientTransform="matrix(1 9.500000e-03 9.500000e-03 -1 -15688.6035 3630.8027)">
				<stop  offset="0" style="stop-color:#FEBBBA"/>
				<stop  offset="1" style="stop-color:#FF928E"/>
			</linearGradient>
			<path style="fill:url(#SVGID_00000051356078468433395330000002674994318473188493_);" d="M1010.9,3146.2l4,37.1
				c0,0,25.2,12,42.5-1.1l-10.1-41.4L1010.9,3146.2z"/>
			
				<linearGradient id="SVGID_00000160868690086484983440000005841416882004458636_" gradientUnits="userSpaceOnUse" x1="-6324.7764" y1="-25494.0137" x2="-5900.2729" y2="-25004.9863" gradientTransform="matrix(1 9.500000e-03 9.500000e-03 -1 -15688.6035 3630.8027)">
				<stop  offset="0" style="stop-color:#09005D"/>
				<stop  offset="1" style="stop-color:#1A0F91"/>
			</linearGradient>
			<path style="fill:url(#SVGID_00000160868690086484983440000005841416882004458636_);" d="M1020.9,2449.7
				c-2,9.7-14.8,482.7,33.8,695.3c0.8,3.5-1,7-4.3,8.3c-7.8,3.1-23,7.5-41.3,8c-5.6,0.1-10.7-3.6-12.2-9
				c-14-49.3-80.9-296.5-87.7-532c-7.6-263.2,0.1-9,0.1-9l7.5-162.6L1020.9,2449.7z"/>
			
				<linearGradient id="SVGID_00000014628849278056798970000011594003399992373641_" gradientUnits="userSpaceOnUse" x1="16746.3848" y1="776.7678" x2="16218.0381" y2="202.0745" gradientTransform="matrix(1 9.500000e-03 9.500000e-03 -1 -15688.6035 3630.8027)">
				<stop  offset="0" style="stop-color:#09005D"/>
				<stop  offset="1" style="stop-color:#1A0F91"/>
			</linearGradient>
			<path style="fill:url(#SVGID_00000014628849278056798970000011594003399992373641_);" d="M849.1,3179c0,0-8.9,15.6-17.7,57
				c-1.6,7.5,3.6,14.7,11.2,15.5c13.5,1.5,34.2,3.4,50.8,3.4c7.7,0,13.7-6.6,12.9-14.2c-1.7-15.2-7.2-40.1-24.7-59.7L849.1,3179z"/>
			
				<linearGradient id="SVGID_00000004522794260082649740000013349330265105594754_" gradientUnits="userSpaceOnUse" x1="16524.2852" y1="627.5243" x2="16564.8027" y2="627.5243" gradientTransform="matrix(1 9.500000e-03 9.500000e-03 -1 -15688.6035 3630.8027)">
				<stop  offset="0" style="stop-color:#FEBBBA"/>
				<stop  offset="1" style="stop-color:#FF928E"/>
			</linearGradient>
			<path style="fill:url(#SVGID_00000004522794260082649740000013349330265105594754_);" d="M841.9,3131.3l9.7,56.1
				c0,0,10.1,7.7,30.2,2.4l-4.3-60.3L841.9,3131.3z"/>
			
				<linearGradient id="SVGID_00000103253851107391173060000010536786524140970136_" gradientUnits="userSpaceOnUse" x1="-6394.5732" y1="-25433.3965" x2="-5970.0713" y2="-24944.3711" gradientTransform="matrix(1 9.500000e-03 9.500000e-03 -1 -15688.6035 3630.8027)">
				<stop  offset="0" style="stop-color:#09005D"/>
				<stop  offset="1" style="stop-color:#1A0F91"/>
			</linearGradient>
			<path style="fill:url(#SVGID_00000103253851107391173060000010536786524140970136_);" d="M820.5,2462.3
				c-43.7,249.3,3.1,617.1,19.4,689.2c1,4.4,4.5,7.8,9,8.6c7.6,1.3,20,2.5,32.4-1c4.2-1.2,7.3-5,7.5-9.4c2.8-58.1,2.1-415,42-555.7
				c2-7.1,6.4-13.3,12.5-17.6l75.3-52.5l6.6-85.9L820.5,2462.3z"/>
			<g>
				
					<linearGradient id="SVGID_00000063591311292698344460000009060395377941738395_" gradientUnits="userSpaceOnUse" x1="9696.3008" y1="15125.7949" x2="10395.8809" y2="16032.5303" gradientTransform="matrix(-1 0 0 -1 184.5305 3710)">
					<stop  offset="0" style="stop-color:#FE7062"/>
					<stop  offset="1" style="stop-color:#FF928E"/>
				</linearGradient>
				<path style="fill:url(#SVGID_00000063591311292698344460000009060395377941738395_);" d="M1088.6,1991.7
					c-123.9-3.2-261.1,30.1-261.1,30.1c-39,215.3-10.9,464.2-10.9,464.2c95.7,26.1,204.4-13.4,204.4-13.4
					c16.8-90,93.7-342.9,93.7-342.9c60.6-6.9,110.7-23.9,152-46.6c-31-36.6-45.3-83-51.5-110.4
					C1171.3,1985.9,1126.9,1992.7,1088.6,1991.7z"/>
				
					<linearGradient id="SVGID_00000155147010933254213360000018053830834919043496_" gradientUnits="userSpaceOnUse" x1="16886.5859" y1="1849.4498" x2="17126.3496" y2="1849.4498" gradientTransform="matrix(1 9.500000e-03 9.500000e-03 -1 -15688.6035 3630.8027)">
					<stop  offset="0" style="stop-color:#FEBBBA"/>
					<stop  offset="1" style="stop-color:#FF928E"/>
				</linearGradient>
				<path style="fill:url(#SVGID_00000155147010933254213360000018053830834919043496_);" d="M1456.6,1812.6c-12-14.8-27.5-8-27.5-8
					c-19,76.9-115.2,138.5-213.8,168.1c6.2,27.4,20.5,73.8,51.5,110.4C1430.7,1992.9,1456.6,1812.6,1456.6,1812.6z"/>
			</g>
			<g>
				
					<linearGradient id="SVGID_00000057140792075981048450000013894219230841651852_" gradientUnits="userSpaceOnUse" x1="-3316.2053" y1="1890.5668" x2="-3155.321" y2="1524.5188" gradientTransform="matrix(-1 -9.500000e-03 9.500000e-03 -1 -1931.8774 3762.4243)">
					<stop  offset="0" style="stop-color:#FEBBBA"/>
					<stop  offset="1" style="stop-color:#FF928E"/>
				</linearGradient>
				<path style="fill:url(#SVGID_00000057140792075981048450000013894219230841651852_);" d="M1453.6,1816.4
					c1.2,4.1-13.6,10.1-22.1-6.6c-0.2-7.9-4.7-42,0.1-48.4c25.6-34.2,75-76.9,75-76.9c8.2,8.2,1.3,16.2,1.3,16.2l-24,24.5
					c4.9,9,10.9,16.7,13.6,27.6c2.1,8.2,0.7,17-3.6,24.5c-4.2,7.5-10,17.2-15.5,24.8C1468.1,1816.4,1453.6,1816.4,1453.6,1816.4z"/>
				
					<linearGradient id="SVGID_00000110440114604929663850000009295918343322564765_" gradientUnits="userSpaceOnUse" x1="17125.2012" y1="2011.541" x2="17192.332" y2="2114.7556" gradientTransform="matrix(1 9.500000e-03 9.500000e-03 -1 -15688.6035 3630.8027)">
					<stop  offset="0" style="stop-color:#FEBBBA"/>
					<stop  offset="1" style="stop-color:#FF928E"/>
				</linearGradient>
				<path style="fill:url(#SVGID_00000110440114604929663850000009295918343322564765_);" d="M1473.3,1741.1l-21.8,18.2l-7,18.2
					l19.1,21.6c0,0,6.8-36.2,11.7-44C1480.2,1747.3,1477.8,1743.5,1473.3,1741.1z"/>
			</g>
			
				<linearGradient id="SVGID_00000105408462755237345440000005959840767720754859_" gradientUnits="userSpaceOnUse" x1="9799.6279" y1="15046.0508" x2="10499.207" y2="15952.7861" gradientTransform="matrix(-1 0 0 -1 184.5305 3710)">
				<stop  offset="0" style="stop-color:#FE7062"/>
				<stop  offset="1" style="stop-color:#FF928E"/>
			</linearGradient>
			<path style="fill:url(#SVGID_00000105408462755237345440000005959840767720754859_);" d="M874,2142.3l-46.4-120.5
				c0,0-116.5,77.6-136.5,177.1c21.9,1.8,61.6,7.9,100.4,27.9C800.5,2179.9,874,2142.3,874,2142.3z"/>
			
				<linearGradient id="SVGID_00000015346031124352733360000009638457776503740063_" gradientUnits="userSpaceOnUse" x1="16361.9346" y1="1509.8638" x2="16665.3477" y2="1509.8638" gradientTransform="matrix(1 9.500000e-03 9.500000e-03 -1 -15688.6035 3630.8027)">
				<stop  offset="0" style="stop-color:#FEBBBA"/>
				<stop  offset="1" style="stop-color:#FF928E"/>
			</linearGradient>
			<path style="fill:url(#SVGID_00000015346031124352733360000009638457776503740063_);" d="M974.1,2256.2c0,0-130.7,72.2-174,9.1
				c-9-13.1-11-26.1-8.7-38.4c-38.8-20-78.5-26.1-100.4-27.9c-6,30-3.3,62,14.1,94.5c75.5,141.3,285.9-5,285.9-5L974.1,2256.2z"/>
			
				<linearGradient id="SVGID_00000145752835687994032250000015096942505927841981_" gradientUnits="userSpaceOnUse" x1="16594.9258" y1="1834.2246" x2="16714.8906" y2="1834.2246" gradientTransform="matrix(1 9.500000e-03 9.500000e-03 -1 -15688.6035 3630.8027)">
				<stop  offset="0" style="stop-color:#FEBBBA"/>
				<stop  offset="1" style="stop-color:#FF928E"/>
			</linearGradient>
			<path style="fill:url(#SVGID_00000145752835687994032250000015096942505927841981_);" d="M964,1889.9l-40.5,113.7
				c-0.7,1.9,0.1,4,1.8,5c10.7,6,49.3,23.6,96.2-5.6c4.9-3,8.3-8,9-13.7l13.7-98.6L964,1889.9z"/>
			<g>
				
					<linearGradient id="SVGID_00000003100608523797735640000016568954069241781158_" gradientUnits="userSpaceOnUse" x1="8456.5264" y1="-5286.9233" x2="8411.6973" y2="-5139.0659" gradientTransform="matrix(0.7523 -0.6588 -0.6588 -0.7523 -8771.9004 3473.1323)">
					<stop  offset="0" style="stop-color:#FEBBBA"/>
					<stop  offset="1" style="stop-color:#FF928E"/>
				</linearGradient>
				<path style="fill:url(#SVGID_00000003100608523797735640000016568954069241781158_);" d="M1050.9,1785.1
					c0,0,42.5,81.9,36.7,114.8c-5.9,32.9-59.5,30-106.1,2.8l-31.9-88.4L1050.9,1785.1z"/>
				
					<linearGradient id="SVGID_00000016041143463476396230000003812069905827973031_" gradientUnits="userSpaceOnUse" x1="8416.0859" y1="-5029.3042" x2="8453.585" y2="-5243.186" gradientTransform="matrix(0.7523 -0.6588 -0.6588 -0.7523 -8771.9004 3473.1323)">
					<stop  offset="0" style="stop-color:#09005D"/>
					<stop  offset="1" style="stop-color:#1A0F91"/>
				</linearGradient>
				<path style="fill:url(#SVGID_00000016041143463476396230000003812069905827973031_);" d="M983.9,1859.5c1.9-0.8,2.6-3.2,1.5-4.9
					c-3.4-5.3-9.8-16.2-11.8-25.7c0,0-7.7-5.1,19.9-11.4c27.7-6.3,68.9-16.2,77.8-39.6c8.7-22.8-13-80.7-48.8-35.1
					c-1.4,1.7-4,1.7-5.3,0c-5.7-7.6-20.8-23.4-42.1-14.1c-19.9,8.7-22.3,23.2-22.1,30.5c0.1,2.2-1.9,3.8-4,3.4
					c-10-2-34-3.9-45.5,20.7c-9.4,20.2-3.5,31.8,1.9,37.4c1.8,1.8,0.9,4.8-1.5,5.5c-6.6,2-15.1,7.4-14.4,22.9
					c1,21.3,24.8,19.7,31.6,18.8c1.1-0.1,2.2,0.2,3,1.1c5.8,6.5,31.7,34.1,60,37.6c2.5,0.3,4.4-2.1,3.6-4.4l-11.9-35.8
					c-0.6-1.7,0.3-3.5,1.9-4.2L983.9,1859.5z"/>
				
					<linearGradient id="SVGID_00000137128336005689387590000010252270666251968700_" gradientUnits="userSpaceOnUse" x1="8410.7012" y1="-5286.2329" x2="8370.3672" y2="-5153.2036" gradientTransform="matrix(0.7523 -0.6588 -0.6588 -0.7523 -8771.9004 3473.1323)">
					<stop  offset="0" style="stop-color:#FEBBBA"/>
					<stop  offset="1" style="stop-color:#FF928E"/>
				</linearGradient>
				<path style="fill:url(#SVGID_00000137128336005689387590000010252270666251968700_);" d="M988.8,1864.6c0,0-30.6-21.5-33.1-3.7
					c-2.4,17.8,27.5,26.1,42.5,19.6L988.8,1864.6z"/>
			</g>
			<g>
				<g>
					
						<linearGradient id="SVGID_00000055687208067619878390000017497078794562927544_" gradientUnits="userSpaceOnUse" x1="16473.2402" y1="1626.4113" x2="16640.6621" y2="928.8127" gradientTransform="matrix(1 0 0 -1 -15400.792 3710)">
						<stop  offset="0" style="stop-color:#09005D"/>
						<stop  offset="1" style="stop-color:#1A0F91"/>
					</linearGradient>
					<path style="fill:url(#SVGID_00000055687208067619878390000017497078794562927544_);" d="M947.4,2370.4l71.2-248.6
						c0.8-2.8,3.2-4.9,6.1-5.2c12.9-1.5,50.3-5.7,93.4-9.4c52-4.4,112.4-8,148.4-4.9c5.1,0.4,8.2,5.9,5.9,10.5
						c-20.5,41.5-104.9,210.3-147.2,265.6c-1.4,1.8-3.6,2.9-5.9,2.9l-165.2-1.5C949.5,2379.6,946.1,2375,947.4,2370.4z"/>
					
						<linearGradient id="SVGID_00000023260980509598819220000017366809773660601238_" gradientUnits="userSpaceOnUse" x1="16358.5156" y1="1441.8597" x2="16453.375" y2="1441.8597" gradientTransform="matrix(1 0 0 -1 -15400.792 3710)">
						<stop  offset="0" style="stop-color:#FEBBBA"/>
						<stop  offset="1" style="stop-color:#FF928E"/>
					</linearGradient>
					<path style="fill:url(#SVGID_00000023260980509598819220000017366809773660601238_);" d="M964.6,2310.3c0,0-9.9-40.8-5.9-55.3
						s11.8-33.1,37.6-28.9c25.8,4.1,56.3,15,56.3,15s-1.5,18.8-21.2,12.8l12.2,9.4c0,0-1.7,15.1-18.3,7l11.3,12.5
						c0,0-7.1,12.4-19.3,4.4C1005.1,2279.3,999.2,2315.2,964.6,2310.3z"/>
				</g>
				<path class="st3" d="M1113.4,2181.3c0,11.5,9.4,20.9,20.9,20.9c11.5,0,20.9-9.4,20.9-20.9c0-11.5-9.4-20.9-20.9-20.9
					C1122.8,2160.4,1113.4,2169.8,1113.4,2181.3z"/>
				<path class="st3" d="M1025.6,2194.8l-3.3-1l14.5-49.2c2.2-7.6,8.4-13.4,16.1-14.9c45.8-9.6,170.6-11.6,171.9-11.6l0.1,3.4
					c-1.3,0-125.7,2-171.2,11.5c-6.4,1.3-11.6,6.2-13.5,12.6L1025.6,2194.8z"/>
			</g>
		</g>
	</g>
</g>
</svg>
